<svg xmlns="http://www.w3.org/2000/svg" viewBox="0 0 512 512" width="512" height="512"><path d="m 38.590112,0.21237975 c -21.157017,0 -38.36557515,21.51350625 -38.36557515,47.96322825 v 63.950972 c 0,8.83323 5.72286485,15.98775 12.78852615,15.98775 H 76.955685 V 48.175608 c 0,-26.449722 -17.208558,-47.96322825 -38.365573,-47.96322825 z M 204.84094,412.46632 v -60.5236 H 435.0344 V 96.138844 c 0,-52.899451 -34.41712,-95.92646425 -76.73116,-95.92646425 H 89.416508 C 97.529228,13.612107 102.53274,30.109459 102.53274,48.175608 V 415.89369 c 0,38.84022 27.69515,69.59664 59.74639,63.07164 25.15343,-5.11607 42.56181,-34.63345 42.56181,-66.49901 z m 25.57705,-28.54811 v 31.97548 c 0,52.88945 -34.41712,95.92646 -76.73115,95.92646 h 268.55902 c 49.44364,0 89.51967,-50.1016 89.51967,-111.9142 0,-8.83323 -5.72285,-15.98774 -12.78852,-15.98774 z"/><g transform="matrix(0.43072943,0,0,0.43737602,138.69111,72.249856)" style="fill:#ffffff"><path d="m 575.2,325.7 c 0.2,-1.9 0.8,-3.7 0.8,-5.6 0,-35.3 -28.7,-64 -64,-64 -12.6,0 -24.2,3.8 -34.1,10 -17.6,-38.8 -56.5,-66 -101.9,-66 -61.8,0 -112,50.1 -112,112 0,3 0.7,5.8 0.9,8.7 -49.6,3.7 -88.9,44.7 -88.9,95.3 0,53 43,96 96,96 h 272 c 53,0 96,-43 96,-96 0,-42.1 -27.2,-77.4 -64.8,-90.4 z M 144.8,303.1 c -43.7,-43.7 -43.7,-114.7 0,-158.3 43.7,-43.7 114.7,-43.7 158.4,0 9.7,9.7 16.9,20.9 22.3,32.7 9.8,-3.7 20.1,-6 30.7,-7.5 L 386,81.1 C 390,69.2 378.7,58 366.8,61.9 L 279,91.2 237.5,8.4 C 232,-2.8 216,-2.8 210.4,8.4 L 169,91.2 81.1,61.9 C 69.3,58 58,69.3 61.9,81.1 l 29.3,87.8 -82.8,41.5 c -11.2,5.6 -11.2,21.5 0,27.1 l 82.8,41.4 -29.3,87.8 c -4,11.9 7.3,23.1 19.2,19.2 l 76.1,-25.3 c 6.1,-12.4 14,-23.7 23.6,-33.5 -13.1,-5.4 -25.4,-13.4 -36,-24 z M 140,223.9 c 0,40.8 29.3,74.8 67.9,82.3 8,-4.7 16.3,-8.8 25.2,-11.7 5.4,-44.3 31,-82.5 67.4,-105 C 287.3,160.4 258,140 224,140 c -46.3,0 -84,37.6 -84,83.9 z" fill="#000000" fill-opacity="1" style="fill:#ffffff" /></g></svg>